<svg width="14" height="15" viewBox="0 0 14 15" fill="none" xmlns="http://www.w3.org/2000/svg">
<path d="M7 7.77625C7.92826 7.77625 8.8185 7.4075 9.47487 6.75112C10.1313 6.09474 10.5 5.2045 10.5 4.27625C10.5 3.34799 10.1313 2.45775 9.47487 1.80137C8.8185 1.14499 7.92826 0.776245 7 0.776245C6.07174 0.776245 5.1815 1.14499 4.52513 1.80137C3.86875 2.45775 3.5 3.34799 3.5 4.27625C3.5 5.2045 3.86875 6.09474 4.52513 6.75112C5.1815 7.4075 6.07174 7.77624 7 7.77625ZM9.33333 4.27625C9.33333 4.89508 9.0875 5.48858 8.64991 5.92616C8.21233 6.36375 7.61884 6.60958 7 6.60958C6.38116 6.60958 5.78767 6.36375 5.35008 5.92616C4.9125 5.48858 4.66667 4.89508 4.66667 4.27625C4.66667 3.65741 4.9125 3.06391 5.35008 2.62633C5.78767 2.18874 6.38116 1.94291 7 1.94291C7.61884 1.94291 8.21233 2.18874 8.64991 2.62633C9.0875 3.06391 9.33333 3.65741 9.33333 4.27625ZM14 13.6096C14 14.7762 12.8333 14.7762 12.8333 14.7762H1.16667C1.16667 14.7762 0 14.7762 0 13.6096C0 12.4429 1.16667 8.94291 7 8.94291C12.8333 8.94291 14 12.4429 14 13.6096ZM12.8333 13.6049C12.8322 13.3179 12.6537 12.4546 11.8627 11.6636C11.102 10.9029 9.6705 10.1096 7 10.1096C4.32833 10.1096 2.898 10.9029 2.13733 11.6636C1.34633 12.4546 1.169 13.3179 1.16667 13.6049H12.8333Z" fill="black"/>
</svg>
